
<svg
   version="1.1"
  
   xmlns:svg="http://www.w3.org/2000/svg">
  <defs
     id="defs6" />
  <sodipodi:namedview
     id="namedview4"
     pagecolor="#ffffff"
     bordercolor="#000000"
     borderopacity="0.25"
     inkscape:showpageshadow="2"
     inkscape:pageopacity="0.0"
     inkscape:pagecheckerboard="0"
     inkscape:deskcolor="#d1d1d1" />
  <g
     id="g8"
     inkscape:groupmode="layer"
     inkscape:label="ink_ext_XXXXXX"
     transform="matrix(1.3333333,0,0,-1.3333333,0,77.333333)">
    <g
       id="g10"
       transform="scale(0.1)">
      <path
         d="m 112.402,342.117 c 0.008,3.715 2.512,5.571 5.578,5.571 h 54.333 c 16.671,-1.895 28.312,-10.383 29.453,-32.7 v -30.187 c 0,-4.481 -0.262,-8.254 -1.555,-12.61 -4.324,-14.535 -14.707,-21.75 -30.227,-22.765 h -23.3 c 0,-12.321 0,-24.625 0,-36.949 0,-2.774 -2.332,-4.153 -5.153,-4.153 -8.16,0 -16.316,0 -24.468,0 -2.977,0 -5.168,1.66 -5.157,4.989 z m 34.528,-28.676 h 14.461 c 3.246,0 5.922,-2.668 5.922,-5.933 V 290.07 c 0,-3.257 -2.676,-5.933 -5.922,-5.933 H 146.93 v 29.304"
         style="fill:#25378c;fill-opacity:1;fill-rule:evenodd;stroke:none"
         id="path12" />
      <path
         d="m 228.543,347.523 h 37.973 c 22.226,-1.296 34.257,-12.964 33.941,-37.168 v -89.613 c 0,-6.953 -7.012,-12.215 -13.016,-12.215 h -49.777 c -15.101,0 -25.078,11.77 -27.566,23.313 -2.379,11.082 -0.606,24.488 -0.606,35.808 0,17.469 11.582,34.797 30.863,34.797 h 20.262 c 5.899,0.313 5.633,13.196 0,12.743 h -31.668 c -3.207,0 -5.457,1.703 -5.761,4.972 0,7.828 0,15.641 0,23.473 0,2.996 2.476,3.89 5.355,3.89 z m 20.934,-77.48 h 11.586 c 2.73,0 4.972,-2.242 4.972,-4.98 v -20.184 c 0,-2.746 -2.242,-4.984 -4.972,-4.984 h -11.586 c -2.735,0 -4.961,2.238 -4.961,4.984 v 20.184 c 0,2.738 2.226,4.98 4.961,4.98"
         style="fill:#25378c;fill-opacity:1;fill-rule:evenodd;stroke:none"
         id="path14" />
      <path
         d="m 312.113,341.207 v -56.609 c 1.375,-17.75 17.301,-31.035 34.637,-31.035 h 16.035 c 6.629,0 6.223,-11.141 0,-11.141 h -34.687 c -3.758,0 -5.125,-1.965 -5.125,-5.281 v -24.922 c 0,-2.508 2.027,-4.395 4.683,-4.395 h 32.137 c 26.797,0 42.062,12.86 42.055,41.676 v 93.906 c 0,3.059 -1.942,4.25 -3.801,4.25 h -26.934 c -2.488,0 -3.941,-2.699 -3.941,-4.679 v -51.461 c 0,-2.207 -1.231,-3.504 -3.215,-3.504 h -12.75 c -2.93,0 -4.535,1.586 -4.535,4.39 v 49.688 c 0,3.293 -1.324,5.711 -4.965,5.711 -8.625,0 -17.273,0 -25.902,0 -2.95,0 -3.692,-2.918 -3.692,-6.594"
         style="fill:#25378c;fill-opacity:1;fill-rule:evenodd;stroke:none"
         id="path16" />
      <path
         d="m 415.395,317.941 v 24.473 c 0,2.633 2.152,4.785 4.773,4.785 h 5.891 c 15.179,3.16 18.789,12.067 28.07,22.071 5.707,6.175 10.711,7.804 14.398,1.253 v -23.324 h 13.911 c 2.632,0 4.777,-2.152 4.777,-4.785 v -24.473 c 0,-2.617 -2.156,-4.781 -4.777,-4.781 H 468.52 V 212.863 c 0,-2.636 -2.149,-4.777 -4.774,-4.777 h -24.484 c -2.625,0 -4.766,2.141 -4.766,4.777 V 313.16 h -14.328 c -2.609,0 -4.773,2.149 -4.773,4.781"
         style="fill:#00adef;fill-opacity:1;fill-rule:evenodd;stroke:none"
         id="path18" />
      <path
         d="m 588.793,214.461 c 0,-3.266 -2.699,-5.934 -5.977,-5.934 h -22.925 c -3.297,0 -5.985,2.668 -5.985,5.934 v 71.305 20.75 c 0.18,9.957 -19.867,11.5 -19.867,0 v -92.055 c 0,-3.266 -2.687,-5.934 -5.98,-5.934 h -22.914 c -3.293,0 -5.993,2.668 -5.993,5.934 v 127.633 c 0,3.289 2.7,5.957 5.993,5.957 h 22.914 c 3.293,0 5.98,-2.668 5.98,-5.957 v -1.758 c 13.406,12.824 36.629,10.801 48.988,-2.527 23.262,26.683 63.114,2.91 61.27,-26.352 0,-32.344 -0.285,-64.379 -0.285,-96.996 0,-3.266 -2.703,-5.934 -5.973,-5.934 h -22.93 c -3.293,0 -5.984,2.668 -5.984,5.934 0,30.898 0,61.074 0,91.453 -1.305,12.77 -20.59,9.781 -20.566,0 0,-30.394 0.234,-60.785 0.234,-91.453"
         style="fill:#00adef;fill-opacity:1;fill-rule:evenodd;stroke:none"
         id="path20" />
    </g>
  </g>
</svg>
